<svg width="18" height="18" viewBox="0 0 18 18" fill="none" xmlns="http://www.w3.org/2000/svg">
<path opacity="0.5" fill-rule="evenodd" clip-rule="evenodd" d="M17.8503 16.3943L13.1929 11.7025C13.0181 11.5266 13.0006 11.2556 13.1359 11.0478C15.0454 8.11898 14.6 4.09112 11.7828 1.68531C9.07199 -0.628962 4.94591 -0.549763 2.31947 1.86119C-0.695256 4.62855 -0.771369 9.33886 2.09215 12.2044C4.53397 14.6483 8.31343 14.945 11.089 13.1091C11.2973 12.9712 11.5704 12.9892 11.7463 13.1661L16.3933 17.8482C16.5944 18.0503 16.9205 18.0508 17.1221 17.8492L17.8493 17.1215C18.0498 16.9209 18.0503 16.5959 17.8503 16.3943ZM3.54654 10.7485C1.55936 8.75978 1.55936 5.52391 3.54654 3.53518C5.53373 1.54645 8.76702 1.54594 10.7542 3.53518C12.7414 5.52391 12.7414 8.75978 10.7542 10.7485C8.76702 12.7372 5.53373 12.7372 3.54654 10.7485Z" fill="white"/>
</svg>
